# xmcd
#
# Track frame offsets: 
#        150
#        15180
#        29906
#        49745
#        60715
#        70095
#        94682
#        113764
#        133322
#        151097
#        159655
#        179609
#
# Disc length: 2650 seconds
#
# Revision: 0
# Processed by: cddbd v1.5.2PL0 Copyright (c) Steve Scherf et al.
# Submitted via: ExactAudioCopy v1.0b3
#
DISCID=9e0a580c
DTITLE=James Cleveland - Platinum Gospel (2011)
DYEAR=2011
DGENRE=Gospel
TTITLE0=God Can Do Anything But Fail
TTITLE1=I Walk With God
TTITLE2=It's Gonna Be Late
TTITLE3=Old Time Religion
TTITLE4=Try Jesus
TTITLE5=Lord Do It
TTITLE6=I Know It Was The Blood
TTITLE7=Somethings's Got A Hold On Me
TTITLE8=Get Right Church
TTITLE9=I'm A Soldier In The Army Of The Lord
TTITLE10=Plenty Good Room
TTITLE11=Oh To Be Kept By Jesus
EXTD=
EXTT0=
EXTT1=
EXTT2=
EXTT3=
EXTT4=
EXTT5=
EXTT6=
EXTT7=
EXTT8=
EXTT9=
EXTT10=
EXTT11=
PLAYORDER=
